<mxfile host="app.diagrams.net" agent="Mozilla/5.0 (Macintosh; Intel Mac OS X 10_15_7) AppleWebKit/605.1.15 (KHTML, like Gecko) Version/18.1.1 Safari/605.1.15" version="26.0.2" pages="4">
  <diagram name="RBT-Delete" id="H9me7lY1FJX_Vvs-xEy3">
    <mxGraphModel dx="880" dy="515" grid="1" gridSize="10" guides="1" tooltips="1" connect="1" arrows="1" fold="1" page="1" pageScale="1" pageWidth="827" pageHeight="1169" math="0" shadow="0">
      <root>
        <mxCell id="0" />
        <mxCell id="1" parent="0" />
        <mxCell id="Wdqc6iQ0TKDcjK_5QRPR-6" value="RBTree" style="rounded=0;whiteSpace=wrap;html=1;fillColor=#f8cecc;strokeColor=#b85450;verticalAlign=bottom;" parent="1" vertex="1">
          <mxGeometry x="480" y="150" width="220" height="570" as="geometry" />
        </mxCell>
        <mxCell id="Wdqc6iQ0TKDcjK_5QRPR-2" value="BinaryTree/TreeService" style="rounded=0;whiteSpace=wrap;html=1;fillColor=#dae8fc;strokeColor=#6c8ebf;verticalAlign=bottom;" parent="1" vertex="1">
          <mxGeometry x="40" y="150" width="350" height="570" as="geometry" />
        </mxCell>
        <mxCell id="Wdqc6iQ0TKDcjK_5QRPR-7" style="edgeStyle=orthogonalEdgeStyle;rounded=0;orthogonalLoop=1;jettySize=auto;html=1;entryX=0;entryY=0.5;entryDx=0;entryDy=0;" parent="1" source="Wdqc6iQ0TKDcjK_5QRPR-3" target="Wdqc6iQ0TKDcjK_5QRPR-4" edge="1">
          <mxGeometry relative="1" as="geometry" />
        </mxCell>
        <mxCell id="Wdqc6iQ0TKDcjK_5QRPR-8" value="Loop until Node found" style="edgeLabel;html=1;align=center;verticalAlign=middle;resizable=0;points=[];" parent="Wdqc6iQ0TKDcjK_5QRPR-7" vertex="1" connectable="0">
          <mxGeometry x="0.0629" y="-4" relative="1" as="geometry">
            <mxPoint x="-5" y="4" as="offset" />
          </mxGeometry>
        </mxCell>
        <mxCell id="Wdqc6iQ0TKDcjK_5QRPR-3" value="delete(E)" style="html=1;whiteSpace=wrap;" parent="1" vertex="1">
          <mxGeometry x="146.25" y="190" width="75" height="30" as="geometry" />
        </mxCell>
        <mxCell id="_0LSV586XEZUdIAOI7e7-4" style="edgeStyle=orthogonalEdgeStyle;rounded=0;orthogonalLoop=1;jettySize=auto;html=1;" parent="1" source="Wdqc6iQ0TKDcjK_5QRPR-5" target="_0LSV586XEZUdIAOI7e7-3" edge="1">
          <mxGeometry relative="1" as="geometry" />
        </mxCell>
        <mxCell id="Wdqc6iQ0TKDcjK_5QRPR-5" value="removeNullNode(Node)" style="html=1;whiteSpace=wrap;" parent="1" vertex="1">
          <mxGeometry x="110" y="630" width="147.5" height="30" as="geometry" />
        </mxCell>
        <mxCell id="Wdqc6iQ0TKDcjK_5QRPR-12" style="edgeStyle=orthogonalEdgeStyle;rounded=0;orthogonalLoop=1;jettySize=auto;html=1;entryX=1;entryY=1;entryDx=0;entryDy=0;" parent="1" source="Wdqc6iQ0TKDcjK_5QRPR-4" target="Wdqc6iQ0TKDcjK_5QRPR-9" edge="1">
          <mxGeometry relative="1" as="geometry">
            <Array as="points">
              <mxPoint x="590" y="280" />
            </Array>
          </mxGeometry>
        </mxCell>
        <mxCell id="Wdqc6iQ0TKDcjK_5QRPR-4" value="deleteTarget(Node,Node,CHILD)" style="html=1;whiteSpace=wrap;" parent="1" vertex="1">
          <mxGeometry x="500" y="190" width="180" height="30" as="geometry" />
        </mxCell>
        <mxCell id="Wdqc6iQ0TKDcjK_5QRPR-13" value="" style="group" parent="1" vertex="1" connectable="0">
          <mxGeometry x="60" y="250" width="310" height="60" as="geometry" />
        </mxCell>
        <mxCell id="Wdqc6iQ0TKDcjK_5QRPR-9" value="replaceWithTheSmallestOfRightChildren(Node)" style="html=1;whiteSpace=wrap;" parent="Wdqc6iQ0TKDcjK_5QRPR-13" vertex="1">
          <mxGeometry width="310" height="30" as="geometry" />
        </mxCell>
        <mxCell id="Wdqc6iQ0TKDcjK_5QRPR-10" value="deleteTargetWithOneChildOrNone(Node,Node,CHILD)" style="html=1;whiteSpace=wrap;" parent="Wdqc6iQ0TKDcjK_5QRPR-13" vertex="1">
          <mxGeometry y="30" width="310" height="30" as="geometry" />
        </mxCell>
        <mxCell id="Wdqc6iQ0TKDcjK_5QRPR-20" style="edgeStyle=orthogonalEdgeStyle;rounded=0;orthogonalLoop=1;jettySize=auto;html=1;entryX=1;entryY=1;entryDx=0;entryDy=0;" parent="1" source="Wdqc6iQ0TKDcjK_5QRPR-14" target="Wdqc6iQ0TKDcjK_5QRPR-17" edge="1">
          <mxGeometry relative="1" as="geometry">
            <Array as="points">
              <mxPoint x="590" y="430" />
            </Array>
          </mxGeometry>
        </mxCell>
        <mxCell id="Wdqc6iQ0TKDcjK_5QRPR-14" value="newRBDeleteFixup(Node)" style="html=1;whiteSpace=wrap;" parent="1" vertex="1">
          <mxGeometry x="515" y="365" width="150" height="30" as="geometry" />
        </mxCell>
        <mxCell id="Wdqc6iQ0TKDcjK_5QRPR-19" value="" style="group" parent="1" vertex="1" connectable="0">
          <mxGeometry x="190" y="400" width="147.5" height="60" as="geometry" />
        </mxCell>
        <mxCell id="Wdqc6iQ0TKDcjK_5QRPR-17" value="leftRotate(Node)" style="html=1;whiteSpace=wrap;" parent="Wdqc6iQ0TKDcjK_5QRPR-19" vertex="1">
          <mxGeometry width="147.5" height="30" as="geometry" />
        </mxCell>
        <mxCell id="Wdqc6iQ0TKDcjK_5QRPR-18" value="rightRotate(Node)" style="html=1;whiteSpace=wrap;" parent="Wdqc6iQ0TKDcjK_5QRPR-19" vertex="1">
          <mxGeometry y="30" width="147.5" height="30" as="geometry" />
        </mxCell>
        <mxCell id="Wdqc6iQ0TKDcjK_5QRPR-21" value="Loop until x is root" style="shape=umlFrame;whiteSpace=wrap;html=1;pointerEvents=0;width=110;height=30;" parent="1" vertex="1">
          <mxGeometry x="120" y="350" width="560" height="120" as="geometry" />
        </mxCell>
        <mxCell id="Wdqc6iQ0TKDcjK_5QRPR-26" style="edgeStyle=orthogonalEdgeStyle;rounded=0;orthogonalLoop=1;jettySize=auto;html=1;" parent="1" source="Wdqc6iQ0TKDcjK_5QRPR-22" target="Wdqc6iQ0TKDcjK_5QRPR-14" edge="1">
          <mxGeometry relative="1" as="geometry" />
        </mxCell>
        <mxCell id="Wdqc6iQ0TKDcjK_5QRPR-22" value="deleteTarget(Node,Node,CHILD)" style="html=1;whiteSpace=wrap;" parent="1" vertex="1">
          <mxGeometry x="500" y="310" width="180" height="30" as="geometry" />
        </mxCell>
        <mxCell id="Wdqc6iQ0TKDcjK_5QRPR-24" style="edgeStyle=orthogonalEdgeStyle;rounded=0;orthogonalLoop=1;jettySize=auto;html=1;" parent="1" source="Wdqc6iQ0TKDcjK_5QRPR-10" target="Wdqc6iQ0TKDcjK_5QRPR-22" edge="1">
          <mxGeometry relative="1" as="geometry">
            <Array as="points">
              <mxPoint x="215" y="325" />
            </Array>
          </mxGeometry>
        </mxCell>
        <mxCell id="Wdqc6iQ0TKDcjK_5QRPR-25" value="Delete Successfully" style="edgeLabel;html=1;align=center;verticalAlign=middle;resizable=0;points=[];" parent="Wdqc6iQ0TKDcjK_5QRPR-24" vertex="1" connectable="0">
          <mxGeometry x="0.2933" relative="1" as="geometry">
            <mxPoint as="offset" />
          </mxGeometry>
        </mxCell>
        <mxCell id="Wdqc6iQ0TKDcjK_5QRPR-30" style="edgeStyle=orthogonalEdgeStyle;rounded=0;orthogonalLoop=1;jettySize=auto;html=1;entryX=1;entryY=0.5;entryDx=0;entryDy=0;" parent="1" source="Wdqc6iQ0TKDcjK_5QRPR-27" target="LntfRxIfvlmFtkZNBb37-2" edge="1">
          <mxGeometry relative="1" as="geometry" />
        </mxCell>
        <mxCell id="Wdqc6iQ0TKDcjK_5QRPR-32" value="Null-node will be removed if exist" style="edgeLabel;html=1;align=center;verticalAlign=middle;resizable=0;points=[];" parent="Wdqc6iQ0TKDcjK_5QRPR-30" vertex="1" connectable="0">
          <mxGeometry x="0.0021" y="-2" relative="1" as="geometry">
            <mxPoint as="offset" />
          </mxGeometry>
        </mxCell>
        <mxCell id="Wdqc6iQ0TKDcjK_5QRPR-27" value="deleteTarget(Node,Node,CHILD)" style="html=1;whiteSpace=wrap;" parent="1" vertex="1">
          <mxGeometry x="499" y="550" width="180" height="30" as="geometry" />
        </mxCell>
        <mxCell id="Wdqc6iQ0TKDcjK_5QRPR-28" style="edgeStyle=orthogonalEdgeStyle;rounded=0;orthogonalLoop=1;jettySize=auto;html=1;entryX=0.444;entryY=0.133;entryDx=0;entryDy=0;entryPerimeter=0;exitX=0.818;exitY=1.008;exitDx=0;exitDy=0;exitPerimeter=0;" parent="1" source="Wdqc6iQ0TKDcjK_5QRPR-21" target="Wdqc6iQ0TKDcjK_5QRPR-27" edge="1">
          <mxGeometry relative="1" as="geometry" />
        </mxCell>
        <mxCell id="Wdqc6iQ0TKDcjK_5QRPR-29" value="Fixup done" style="edgeLabel;html=1;align=center;verticalAlign=middle;resizable=0;points=[];" parent="Wdqc6iQ0TKDcjK_5QRPR-28" vertex="1" connectable="0">
          <mxGeometry x="-0.2117" relative="1" as="geometry">
            <mxPoint as="offset" />
          </mxGeometry>
        </mxCell>
        <mxCell id="_kNx6vQEcoZn1Mu1cyZh-1" style="edgeStyle=orthogonalEdgeStyle;rounded=0;orthogonalLoop=1;jettySize=auto;html=1;entryX=0;entryY=0.5;entryDx=0;entryDy=0;" parent="1" source="Wdqc6iQ0TKDcjK_5QRPR-17" target="Wdqc6iQ0TKDcjK_5QRPR-14" edge="1">
          <mxGeometry relative="1" as="geometry">
            <Array as="points">
              <mxPoint x="264" y="380" />
            </Array>
          </mxGeometry>
        </mxCell>
        <mxCell id="LntfRxIfvlmFtkZNBb37-1" value="Bottom-Up" style="text;html=1;align=center;verticalAlign=middle;whiteSpace=wrap;rounded=0;" parent="1" vertex="1">
          <mxGeometry x="120" y="380" width="60" height="30" as="geometry" />
        </mxCell>
        <mxCell id="LntfRxIfvlmFtkZNBb37-3" style="edgeStyle=orthogonalEdgeStyle;rounded=0;orthogonalLoop=1;jettySize=auto;html=1;" parent="1" source="LntfRxIfvlmFtkZNBb37-2" target="Wdqc6iQ0TKDcjK_5QRPR-5" edge="1">
          <mxGeometry relative="1" as="geometry" />
        </mxCell>
        <mxCell id="LntfRxIfvlmFtkZNBb37-2" value="delete(E)" style="html=1;whiteSpace=wrap;" parent="1" vertex="1">
          <mxGeometry x="146.25" y="550" width="75" height="30" as="geometry" />
        </mxCell>
        <mxCell id="_0LSV586XEZUdIAOI7e7-1" value="" style="ellipse;html=1;shape=startState;fillColor=#000000;strokeColor=#ff0000;" parent="1" vertex="1">
          <mxGeometry x="66.25" y="190" width="30" height="30" as="geometry" />
        </mxCell>
        <mxCell id="_0LSV586XEZUdIAOI7e7-2" value="" style="edgeStyle=orthogonalEdgeStyle;html=1;verticalAlign=bottom;endArrow=open;endSize=8;strokeColor=#ff0000;rounded=0;entryX=0;entryY=0.5;entryDx=0;entryDy=0;" parent="1" source="_0LSV586XEZUdIAOI7e7-1" target="Wdqc6iQ0TKDcjK_5QRPR-3" edge="1">
          <mxGeometry relative="1" as="geometry">
            <mxPoint x="146.25" y="210" as="targetPoint" />
          </mxGeometry>
        </mxCell>
        <mxCell id="_0LSV586XEZUdIAOI7e7-3" value="" style="ellipse;html=1;shape=endState;fillColor=#000000;strokeColor=#ff0000;" parent="1" vertex="1">
          <mxGeometry x="307.5" y="630" width="30" height="30" as="geometry" />
        </mxCell>
        <mxCell id="KMC0RdgfzJAL0nBOxPuG-1" value="Top-Down" style="text;html=1;align=center;verticalAlign=middle;whiteSpace=wrap;rounded=0;" parent="1" vertex="1">
          <mxGeometry x="337.5" y="180" width="60" height="30" as="geometry" />
        </mxCell>
      </root>
    </mxGraphModel>
  </diagram>
  <diagram name="RBT-Insert" id="HPVuKAkxUb6smQL4uilt">
    <mxGraphModel dx="1035" dy="606" grid="1" gridSize="10" guides="1" tooltips="1" connect="1" arrows="1" fold="1" page="1" pageScale="1" pageWidth="827" pageHeight="1169" math="0" shadow="0">
      <root>
        <mxCell id="OwLfYLvVGzaY_WwOUva1-0" />
        <mxCell id="OwLfYLvVGzaY_WwOUva1-1" parent="OwLfYLvVGzaY_WwOUva1-0" />
        <mxCell id="OwLfYLvVGzaY_WwOUva1-2" value="RBTree" style="rounded=0;whiteSpace=wrap;html=1;fillColor=#f8cecc;strokeColor=#b85450;verticalAlign=bottom;" vertex="1" parent="OwLfYLvVGzaY_WwOUva1-1">
          <mxGeometry x="480" y="150" width="220" height="570" as="geometry" />
        </mxCell>
        <mxCell id="OwLfYLvVGzaY_WwOUva1-3" value="BinaryTree/TreeService" style="rounded=0;whiteSpace=wrap;html=1;fillColor=#dae8fc;strokeColor=#6c8ebf;verticalAlign=bottom;" vertex="1" parent="OwLfYLvVGzaY_WwOUva1-1">
          <mxGeometry x="40" y="150" width="350" height="570" as="geometry" />
        </mxCell>
        <mxCell id="OwLfYLvVGzaY_WwOUva1-14" style="edgeStyle=orthogonalEdgeStyle;rounded=0;orthogonalLoop=1;jettySize=auto;html=1;entryX=1;entryY=1;entryDx=0;entryDy=0;" edge="1" parent="OwLfYLvVGzaY_WwOUva1-1" source="OwLfYLvVGzaY_WwOUva1-15" target="OwLfYLvVGzaY_WwOUva1-17">
          <mxGeometry relative="1" as="geometry">
            <Array as="points">
              <mxPoint x="560" y="539" />
            </Array>
          </mxGeometry>
        </mxCell>
        <mxCell id="OwLfYLvVGzaY_WwOUva1-15" value="newRBDeleteFixup(Node)" style="html=1;whiteSpace=wrap;" vertex="1" parent="OwLfYLvVGzaY_WwOUva1-1">
          <mxGeometry x="485" y="474" width="150" height="30" as="geometry" />
        </mxCell>
        <mxCell id="OwLfYLvVGzaY_WwOUva1-16" value="" style="group" vertex="1" connectable="0" parent="OwLfYLvVGzaY_WwOUva1-1">
          <mxGeometry x="160" y="509" width="147.5" height="60" as="geometry" />
        </mxCell>
        <mxCell id="OwLfYLvVGzaY_WwOUva1-17" value="leftRotate(Node)" style="html=1;whiteSpace=wrap;" vertex="1" parent="OwLfYLvVGzaY_WwOUva1-16">
          <mxGeometry width="147.5" height="30" as="geometry" />
        </mxCell>
        <mxCell id="OwLfYLvVGzaY_WwOUva1-18" value="rightRotate(Node)" style="html=1;whiteSpace=wrap;" vertex="1" parent="OwLfYLvVGzaY_WwOUva1-16">
          <mxGeometry y="30" width="147.5" height="30" as="geometry" />
        </mxCell>
        <mxCell id="OwLfYLvVGzaY_WwOUva1-19" value="Loop until x is root" style="shape=umlFrame;whiteSpace=wrap;html=1;pointerEvents=0;width=110;height=30;" vertex="1" parent="OwLfYLvVGzaY_WwOUva1-1">
          <mxGeometry x="90" y="459" width="560" height="120" as="geometry" />
        </mxCell>
        <mxCell id="OwLfYLvVGzaY_WwOUva1-29" style="edgeStyle=orthogonalEdgeStyle;rounded=0;orthogonalLoop=1;jettySize=auto;html=1;entryX=0;entryY=0.5;entryDx=0;entryDy=0;" edge="1" parent="OwLfYLvVGzaY_WwOUva1-1" source="OwLfYLvVGzaY_WwOUva1-17" target="OwLfYLvVGzaY_WwOUva1-15">
          <mxGeometry relative="1" as="geometry">
            <Array as="points">
              <mxPoint x="234" y="489" />
            </Array>
          </mxGeometry>
        </mxCell>
        <mxCell id="OwLfYLvVGzaY_WwOUva1-30" value="Bottom-Up" style="text;html=1;align=center;verticalAlign=middle;whiteSpace=wrap;rounded=0;" vertex="1" parent="OwLfYLvVGzaY_WwOUva1-1">
          <mxGeometry x="90" y="489" width="60" height="30" as="geometry" />
        </mxCell>
        <mxCell id="qPpaAI1hfWam1QmfFj5j-0" style="edgeStyle=orthogonalEdgeStyle;rounded=0;orthogonalLoop=1;jettySize=auto;html=1;" edge="1" parent="OwLfYLvVGzaY_WwOUva1-1" source="qPpaAI1hfWam1QmfFj5j-1" target="qPpaAI1hfWam1QmfFj5j-3">
          <mxGeometry relative="1" as="geometry" />
        </mxCell>
        <mxCell id="qPpaAI1hfWam1QmfFj5j-1" value="insert(E)" style="html=1;whiteSpace=wrap;" vertex="1" parent="OwLfYLvVGzaY_WwOUva1-1">
          <mxGeometry x="522.5" y="170" width="75" height="30" as="geometry" />
        </mxCell>
        <mxCell id="qPpaAI1hfWam1QmfFj5j-2" style="edgeStyle=orthogonalEdgeStyle;rounded=0;orthogonalLoop=1;jettySize=auto;html=1;" edge="1" parent="OwLfYLvVGzaY_WwOUva1-1" source="qPpaAI1hfWam1QmfFj5j-3" target="qPpaAI1hfWam1QmfFj5j-9">
          <mxGeometry relative="1" as="geometry" />
        </mxCell>
        <mxCell id="qPpaAI1hfWam1QmfFj5j-3" value="insertNode(Node)" style="html=1;whiteSpace=wrap;" vertex="1" parent="OwLfYLvVGzaY_WwOUva1-1">
          <mxGeometry x="123.75" y="170" width="180" height="30" as="geometry" />
        </mxCell>
        <mxCell id="qPpaAI1hfWam1QmfFj5j-4" style="edgeStyle=orthogonalEdgeStyle;rounded=0;orthogonalLoop=1;jettySize=auto;html=1;entryX=0.5;entryY=0;entryDx=0;entryDy=0;exitX=0.865;exitY=1.003;exitDx=0;exitDy=0;exitPerimeter=0;" edge="1" parent="OwLfYLvVGzaY_WwOUva1-1" target="qPpaAI1hfWam1QmfFj5j-6" source="OwLfYLvVGzaY_WwOUva1-19">
          <mxGeometry relative="1" as="geometry">
            <mxPoint x="575" y="571" as="sourcePoint" />
            <Array as="points">
              <mxPoint x="574" y="591" />
              <mxPoint x="575" y="591" />
            </Array>
          </mxGeometry>
        </mxCell>
        <mxCell id="qPpaAI1hfWam1QmfFj5j-5" value="Fixup done" style="edgeLabel;html=1;align=center;verticalAlign=middle;resizable=0;points=[];" vertex="1" connectable="0" parent="qPpaAI1hfWam1QmfFj5j-4">
          <mxGeometry x="0.075" y="2" relative="1" as="geometry">
            <mxPoint as="offset" />
          </mxGeometry>
        </mxCell>
        <mxCell id="qPpaAI1hfWam1QmfFj5j-6" value="" style="ellipse;html=1;shape=endState;fillColor=#000000;strokeColor=#ff0000;" vertex="1" parent="OwLfYLvVGzaY_WwOUva1-1">
          <mxGeometry x="560" y="651" width="30" height="30" as="geometry" />
        </mxCell>
        <mxCell id="qPpaAI1hfWam1QmfFj5j-7" style="edgeStyle=orthogonalEdgeStyle;rounded=0;orthogonalLoop=1;jettySize=auto;html=1;entryX=0.5;entryY=0;entryDx=0;entryDy=0;" edge="1" parent="OwLfYLvVGzaY_WwOUva1-1" source="qPpaAI1hfWam1QmfFj5j-9" target="qPpaAI1hfWam1QmfFj5j-14">
          <mxGeometry relative="1" as="geometry">
            <Array as="points" />
          </mxGeometry>
        </mxCell>
        <mxCell id="qPpaAI1hfWam1QmfFj5j-8" value="Found parent for newNode" style="edgeLabel;html=1;align=center;verticalAlign=middle;resizable=0;points=[];" vertex="1" connectable="0" parent="qPpaAI1hfWam1QmfFj5j-7">
          <mxGeometry x="0.1827" relative="1" as="geometry">
            <mxPoint as="offset" />
          </mxGeometry>
        </mxCell>
        <mxCell id="qPpaAI1hfWam1QmfFj5j-9" value="getParentOf(E)" style="html=1;whiteSpace=wrap;" vertex="1" parent="OwLfYLvVGzaY_WwOUva1-1">
          <mxGeometry x="161.25" y="240" width="105" height="30" as="geometry" />
        </mxCell>
        <mxCell id="qPpaAI1hfWam1QmfFj5j-10" style="edgeStyle=orthogonalEdgeStyle;rounded=0;orthogonalLoop=1;jettySize=auto;html=1;entryX=0.5;entryY=0;entryDx=0;entryDy=0;" edge="1" parent="OwLfYLvVGzaY_WwOUva1-1" source="qPpaAI1hfWam1QmfFj5j-11" target="OwLfYLvVGzaY_WwOUva1-15">
          <mxGeometry relative="1" as="geometry">
            <mxPoint x="560" y="470" as="targetPoint" />
          </mxGeometry>
        </mxCell>
        <mxCell id="qPpaAI1hfWam1QmfFj5j-11" value="insert(E)" style="html=1;whiteSpace=wrap;" vertex="1" parent="OwLfYLvVGzaY_WwOUva1-1">
          <mxGeometry x="522.5" y="340" width="75" height="30" as="geometry" />
        </mxCell>
        <mxCell id="qPpaAI1hfWam1QmfFj5j-12" value="Top-Down" style="text;html=1;align=center;verticalAlign=middle;whiteSpace=wrap;rounded=0;" vertex="1" parent="OwLfYLvVGzaY_WwOUva1-1">
          <mxGeometry x="266.25" y="240" width="60" height="30" as="geometry" />
        </mxCell>
        <mxCell id="qPpaAI1hfWam1QmfFj5j-13" style="edgeStyle=orthogonalEdgeStyle;rounded=0;orthogonalLoop=1;jettySize=auto;html=1;" edge="1" parent="OwLfYLvVGzaY_WwOUva1-1" source="qPpaAI1hfWam1QmfFj5j-14" target="qPpaAI1hfWam1QmfFj5j-11">
          <mxGeometry relative="1" as="geometry" />
        </mxCell>
        <mxCell id="qPpaAI1hfWam1QmfFj5j-14" value="insertNode(Node)" style="html=1;whiteSpace=wrap;" vertex="1" parent="OwLfYLvVGzaY_WwOUva1-1">
          <mxGeometry x="123.75" y="340" width="180" height="30" as="geometry" />
        </mxCell>
        <mxCell id="qPpaAI1hfWam1QmfFj5j-15" value="" style="ellipse;html=1;shape=startState;fillColor=#000000;strokeColor=#ff0000;" vertex="1" parent="OwLfYLvVGzaY_WwOUva1-1">
          <mxGeometry x="626.88" y="170" width="30" height="30" as="geometry" />
        </mxCell>
        <mxCell id="qPpaAI1hfWam1QmfFj5j-16" value="" style="edgeStyle=orthogonalEdgeStyle;html=1;verticalAlign=bottom;endArrow=open;endSize=8;strokeColor=#ff0000;rounded=0;entryX=1;entryY=0.5;entryDx=0;entryDy=0;" edge="1" parent="OwLfYLvVGzaY_WwOUva1-1" source="qPpaAI1hfWam1QmfFj5j-15" target="qPpaAI1hfWam1QmfFj5j-1">
          <mxGeometry relative="1" as="geometry">
            <mxPoint x="641.88" y="250" as="targetPoint" />
          </mxGeometry>
        </mxCell>
      </root>
    </mxGraphModel>
  </diagram>
  <diagram id="D13gjSXPjPWqBP5hGdb6" name="AVL-Delete">
    <mxGraphModel dx="880" dy="515" grid="1" gridSize="10" guides="1" tooltips="1" connect="1" arrows="1" fold="1" page="1" pageScale="1" pageWidth="827" pageHeight="1169" math="0" shadow="0">
      <root>
        <mxCell id="0" />
        <mxCell id="1" parent="0" />
        <mxCell id="KsM0eJ9j34-ywKA9wlZv-1" value="AVLTree" style="rounded=0;whiteSpace=wrap;html=1;fillColor=#e1d5e7;strokeColor=#9673a6;verticalAlign=bottom;" vertex="1" parent="1">
          <mxGeometry x="480" y="150" width="220" height="640" as="geometry" />
        </mxCell>
        <mxCell id="KsM0eJ9j34-ywKA9wlZv-2" value="BinaryTree/TreeService" style="rounded=0;whiteSpace=wrap;html=1;fillColor=#dae8fc;strokeColor=#6c8ebf;verticalAlign=bottom;" vertex="1" parent="1">
          <mxGeometry x="40" y="150" width="350" height="640" as="geometry" />
        </mxCell>
        <mxCell id="KsM0eJ9j34-ywKA9wlZv-3" style="edgeStyle=orthogonalEdgeStyle;rounded=0;orthogonalLoop=1;jettySize=auto;html=1;entryX=0;entryY=0.5;entryDx=0;entryDy=0;" edge="1" parent="1" source="KsM0eJ9j34-ywKA9wlZv-5" target="KsM0eJ9j34-ywKA9wlZv-8">
          <mxGeometry relative="1" as="geometry" />
        </mxCell>
        <mxCell id="KsM0eJ9j34-ywKA9wlZv-4" value="Loop until Node found" style="edgeLabel;html=1;align=center;verticalAlign=middle;resizable=0;points=[];" vertex="1" connectable="0" parent="KsM0eJ9j34-ywKA9wlZv-3">
          <mxGeometry x="0.0629" y="-4" relative="1" as="geometry">
            <mxPoint x="-5" y="4" as="offset" />
          </mxGeometry>
        </mxCell>
        <mxCell id="KsM0eJ9j34-ywKA9wlZv-5" value="delete(E)" style="html=1;whiteSpace=wrap;" vertex="1" parent="1">
          <mxGeometry x="150" y="190" width="75" height="30" as="geometry" />
        </mxCell>
        <mxCell id="OVvPNx-4dzcTeu8fpA69-4" style="edgeStyle=orthogonalEdgeStyle;rounded=0;orthogonalLoop=1;jettySize=auto;html=1;" edge="1" parent="1" source="KsM0eJ9j34-ywKA9wlZv-6" target="OVvPNx-4dzcTeu8fpA69-3">
          <mxGeometry relative="1" as="geometry" />
        </mxCell>
        <mxCell id="KsM0eJ9j34-ywKA9wlZv-6" value="removeNullNode(Node)" style="html=1;whiteSpace=wrap;" vertex="1" parent="1">
          <mxGeometry x="113.75" y="720" width="147.5" height="30" as="geometry" />
        </mxCell>
        <mxCell id="KsM0eJ9j34-ywKA9wlZv-7" style="edgeStyle=orthogonalEdgeStyle;rounded=0;orthogonalLoop=1;jettySize=auto;html=1;entryX=1;entryY=1;entryDx=0;entryDy=0;" edge="1" parent="1" source="KsM0eJ9j34-ywKA9wlZv-8" target="KsM0eJ9j34-ywKA9wlZv-10">
          <mxGeometry relative="1" as="geometry">
            <Array as="points">
              <mxPoint x="590" y="280" />
            </Array>
          </mxGeometry>
        </mxCell>
        <mxCell id="KsM0eJ9j34-ywKA9wlZv-8" value="deleteTarget(Node,Node,CHILD)" style="html=1;whiteSpace=wrap;" vertex="1" parent="1">
          <mxGeometry x="500" y="190" width="180" height="30" as="geometry" />
        </mxCell>
        <mxCell id="KsM0eJ9j34-ywKA9wlZv-9" value="" style="group" vertex="1" connectable="0" parent="1">
          <mxGeometry x="60" y="250" width="310" height="60" as="geometry" />
        </mxCell>
        <mxCell id="KsM0eJ9j34-ywKA9wlZv-10" value="replaceWithTheSmallestOfRightChildren(Node)" style="html=1;whiteSpace=wrap;" vertex="1" parent="KsM0eJ9j34-ywKA9wlZv-9">
          <mxGeometry width="310" height="30" as="geometry" />
        </mxCell>
        <mxCell id="KsM0eJ9j34-ywKA9wlZv-11" value="deleteTargetWithOneChildOrNone(Node,Node,CHILD)" style="html=1;whiteSpace=wrap;" vertex="1" parent="KsM0eJ9j34-ywKA9wlZv-9">
          <mxGeometry y="30" width="310" height="30" as="geometry" />
        </mxCell>
        <mxCell id="M_AQU9iTLRsmnDn1_eSv-2" style="edgeStyle=orthogonalEdgeStyle;rounded=0;orthogonalLoop=1;jettySize=auto;html=1;" edge="1" parent="1" source="KsM0eJ9j34-ywKA9wlZv-13" target="M_AQU9iTLRsmnDn1_eSv-1">
          <mxGeometry relative="1" as="geometry" />
        </mxCell>
        <mxCell id="KsM0eJ9j34-ywKA9wlZv-13" value="balanceTheTree(Node,Node)" style="html=1;whiteSpace=wrap;" vertex="1" parent="1">
          <mxGeometry x="506.25" y="370" width="167.5" height="30" as="geometry" />
        </mxCell>
        <mxCell id="KsM0eJ9j34-ywKA9wlZv-14" value="" style="group" vertex="1" connectable="0" parent="1">
          <mxGeometry x="170" y="435" width="147.5" height="60" as="geometry" />
        </mxCell>
        <mxCell id="KsM0eJ9j34-ywKA9wlZv-15" value="leftRotate(Node)" style="html=1;whiteSpace=wrap;" vertex="1" parent="KsM0eJ9j34-ywKA9wlZv-14">
          <mxGeometry width="147.5" height="30" as="geometry" />
        </mxCell>
        <mxCell id="KsM0eJ9j34-ywKA9wlZv-16" value="rightRotate(Node)" style="html=1;whiteSpace=wrap;" vertex="1" parent="KsM0eJ9j34-ywKA9wlZv-14">
          <mxGeometry y="30" width="147.5" height="30" as="geometry" />
        </mxCell>
        <mxCell id="KsM0eJ9j34-ywKA9wlZv-17" value="Loop until parent is root" style="shape=umlFrame;whiteSpace=wrap;html=1;pointerEvents=0;width=140;height=30;" vertex="1" parent="1">
          <mxGeometry x="120" y="350" width="560" height="230" as="geometry" />
        </mxCell>
        <mxCell id="KsM0eJ9j34-ywKA9wlZv-18" style="edgeStyle=orthogonalEdgeStyle;rounded=0;orthogonalLoop=1;jettySize=auto;html=1;" edge="1" parent="1" source="KsM0eJ9j34-ywKA9wlZv-19" target="KsM0eJ9j34-ywKA9wlZv-13">
          <mxGeometry relative="1" as="geometry" />
        </mxCell>
        <mxCell id="KsM0eJ9j34-ywKA9wlZv-19" value="deleteTarget(Node,Node,CHILD)" style="html=1;whiteSpace=wrap;" vertex="1" parent="1">
          <mxGeometry x="500" y="310" width="180" height="30" as="geometry" />
        </mxCell>
        <mxCell id="KsM0eJ9j34-ywKA9wlZv-20" style="edgeStyle=orthogonalEdgeStyle;rounded=0;orthogonalLoop=1;jettySize=auto;html=1;" edge="1" parent="1" source="KsM0eJ9j34-ywKA9wlZv-11" target="KsM0eJ9j34-ywKA9wlZv-19">
          <mxGeometry relative="1" as="geometry">
            <Array as="points">
              <mxPoint x="215" y="325" />
            </Array>
          </mxGeometry>
        </mxCell>
        <mxCell id="KsM0eJ9j34-ywKA9wlZv-21" value="Delete Successfully" style="edgeLabel;html=1;align=center;verticalAlign=middle;resizable=0;points=[];" vertex="1" connectable="0" parent="KsM0eJ9j34-ywKA9wlZv-20">
          <mxGeometry x="0.2933" relative="1" as="geometry">
            <mxPoint as="offset" />
          </mxGeometry>
        </mxCell>
        <mxCell id="KsM0eJ9j34-ywKA9wlZv-22" style="edgeStyle=orthogonalEdgeStyle;rounded=0;orthogonalLoop=1;jettySize=auto;html=1;entryX=1;entryY=0.5;entryDx=0;entryDy=0;" edge="1" parent="1" source="KsM0eJ9j34-ywKA9wlZv-24" target="M_AQU9iTLRsmnDn1_eSv-8">
          <mxGeometry relative="1" as="geometry" />
        </mxCell>
        <mxCell id="KsM0eJ9j34-ywKA9wlZv-23" value="Null-node will be removed if exist" style="edgeLabel;html=1;align=center;verticalAlign=middle;resizable=0;points=[];" vertex="1" connectable="0" parent="KsM0eJ9j34-ywKA9wlZv-22">
          <mxGeometry x="0.0021" y="-2" relative="1" as="geometry">
            <mxPoint y="2" as="offset" />
          </mxGeometry>
        </mxCell>
        <mxCell id="KsM0eJ9j34-ywKA9wlZv-24" value="deleteTarget(Node,Node,CHILD)" style="html=1;whiteSpace=wrap;" vertex="1" parent="1">
          <mxGeometry x="497.75" y="650" width="180" height="30" as="geometry" />
        </mxCell>
        <mxCell id="KsM0eJ9j34-ywKA9wlZv-25" style="edgeStyle=orthogonalEdgeStyle;rounded=0;orthogonalLoop=1;jettySize=auto;html=1;entryX=0.444;entryY=0.133;entryDx=0;entryDy=0;entryPerimeter=0;exitX=0.818;exitY=1.008;exitDx=0;exitDy=0;exitPerimeter=0;" edge="1" parent="1" source="KsM0eJ9j34-ywKA9wlZv-17" target="KsM0eJ9j34-ywKA9wlZv-24">
          <mxGeometry relative="1" as="geometry" />
        </mxCell>
        <mxCell id="KsM0eJ9j34-ywKA9wlZv-26" value="Fixup done" style="edgeLabel;html=1;align=center;verticalAlign=middle;resizable=0;points=[];" vertex="1" connectable="0" parent="KsM0eJ9j34-ywKA9wlZv-25">
          <mxGeometry x="-0.2117" relative="1" as="geometry">
            <mxPoint as="offset" />
          </mxGeometry>
        </mxCell>
        <mxCell id="M_AQU9iTLRsmnDn1_eSv-4" style="edgeStyle=orthogonalEdgeStyle;rounded=0;orthogonalLoop=1;jettySize=auto;html=1;" edge="1" parent="1" source="M_AQU9iTLRsmnDn1_eSv-1" target="M_AQU9iTLRsmnDn1_eSv-3">
          <mxGeometry relative="1" as="geometry" />
        </mxCell>
        <mxCell id="M_AQU9iTLRsmnDn1_eSv-1" value="updateHeight(Node)" style="html=1;whiteSpace=wrap;" vertex="1" parent="1">
          <mxGeometry x="523.13" y="430" width="133.75" height="30" as="geometry" />
        </mxCell>
        <mxCell id="M_AQU9iTLRsmnDn1_eSv-5" style="edgeStyle=orthogonalEdgeStyle;rounded=0;orthogonalLoop=1;jettySize=auto;html=1;" edge="1" parent="1" source="M_AQU9iTLRsmnDn1_eSv-3" target="KsM0eJ9j34-ywKA9wlZv-16">
          <mxGeometry relative="1" as="geometry" />
        </mxCell>
        <mxCell id="M_AQU9iTLRsmnDn1_eSv-6" value="not balanced, do rotation" style="edgeLabel;html=1;align=center;verticalAlign=middle;resizable=0;points=[];" vertex="1" connectable="0" parent="M_AQU9iTLRsmnDn1_eSv-5">
          <mxGeometry x="0.1835" y="-1" relative="1" as="geometry">
            <mxPoint x="24" y="6" as="offset" />
          </mxGeometry>
        </mxCell>
        <mxCell id="M_AQU9iTLRsmnDn1_eSv-3" value="getBalanceFactor(Node)" style="html=1;whiteSpace=wrap;" vertex="1" parent="1">
          <mxGeometry x="523.13" y="500" width="133.75" height="30" as="geometry" />
        </mxCell>
        <mxCell id="M_AQU9iTLRsmnDn1_eSv-7" style="edgeStyle=orthogonalEdgeStyle;rounded=0;orthogonalLoop=1;jettySize=auto;html=1;entryX=0;entryY=0.5;entryDx=0;entryDy=0;" edge="1" parent="1" source="KsM0eJ9j34-ywKA9wlZv-15" target="KsM0eJ9j34-ywKA9wlZv-13">
          <mxGeometry relative="1" as="geometry">
            <Array as="points">
              <mxPoint x="250" y="385" />
            </Array>
          </mxGeometry>
        </mxCell>
        <mxCell id="M_AQU9iTLRsmnDn1_eSv-10" style="edgeStyle=orthogonalEdgeStyle;rounded=0;orthogonalLoop=1;jettySize=auto;html=1;" edge="1" parent="1" source="M_AQU9iTLRsmnDn1_eSv-8" target="KsM0eJ9j34-ywKA9wlZv-6">
          <mxGeometry relative="1" as="geometry" />
        </mxCell>
        <mxCell id="M_AQU9iTLRsmnDn1_eSv-8" value="delete(E)" style="html=1;whiteSpace=wrap;" vertex="1" parent="1">
          <mxGeometry x="150" y="650" width="75" height="30" as="geometry" />
        </mxCell>
        <mxCell id="M_AQU9iTLRsmnDn1_eSv-11" value="Bottom-Up" style="text;html=1;align=center;verticalAlign=middle;whiteSpace=wrap;rounded=0;" vertex="1" parent="1">
          <mxGeometry x="120" y="380" width="60" height="30" as="geometry" />
        </mxCell>
        <mxCell id="OVvPNx-4dzcTeu8fpA69-1" value="" style="ellipse;html=1;shape=startState;fillColor=#000000;strokeColor=#ff0000;" vertex="1" parent="1">
          <mxGeometry x="80" y="190" width="30" height="30" as="geometry" />
        </mxCell>
        <mxCell id="OVvPNx-4dzcTeu8fpA69-2" value="" style="edgeStyle=orthogonalEdgeStyle;html=1;verticalAlign=bottom;endArrow=open;endSize=8;strokeColor=#ff0000;rounded=0;entryX=0;entryY=0.5;entryDx=0;entryDy=0;" edge="1" source="OVvPNx-4dzcTeu8fpA69-1" parent="1" target="KsM0eJ9j34-ywKA9wlZv-5">
          <mxGeometry relative="1" as="geometry">
            <mxPoint x="95" y="280" as="targetPoint" />
          </mxGeometry>
        </mxCell>
        <mxCell id="OVvPNx-4dzcTeu8fpA69-3" value="" style="ellipse;html=1;shape=endState;fillColor=#000000;strokeColor=#ff0000;" vertex="1" parent="1">
          <mxGeometry x="310" y="720" width="30" height="30" as="geometry" />
        </mxCell>
        <mxCell id="DJ97FINk41GIyRcDyF1e-1" value="Top-Down" style="text;html=1;align=center;verticalAlign=middle;whiteSpace=wrap;rounded=0;" vertex="1" parent="1">
          <mxGeometry x="337.5" y="180" width="60" height="30" as="geometry" />
        </mxCell>
      </root>
    </mxGraphModel>
  </diagram>
  <diagram name="AVL-Insert" id="8G3MN47nZDbCh7DDKGuI">
    <mxGraphModel dx="880" dy="515" grid="1" gridSize="10" guides="1" tooltips="1" connect="1" arrows="1" fold="1" page="1" pageScale="1" pageWidth="827" pageHeight="1169" math="0" shadow="0">
      <root>
        <mxCell id="g5ZLTCVm9iSsXj_-lOF2-0" />
        <mxCell id="g5ZLTCVm9iSsXj_-lOF2-1" parent="g5ZLTCVm9iSsXj_-lOF2-0" />
        <mxCell id="g5ZLTCVm9iSsXj_-lOF2-2" value="AVLTree" style="rounded=0;whiteSpace=wrap;html=1;fillColor=#e1d5e7;strokeColor=#9673a6;verticalAlign=bottom;" vertex="1" parent="g5ZLTCVm9iSsXj_-lOF2-1">
          <mxGeometry x="480" y="30" width="220" height="690" as="geometry" />
        </mxCell>
        <mxCell id="g5ZLTCVm9iSsXj_-lOF2-3" value="BinaryTree/TreeService" style="rounded=0;whiteSpace=wrap;html=1;fillColor=#dae8fc;strokeColor=#6c8ebf;verticalAlign=bottom;" vertex="1" parent="g5ZLTCVm9iSsXj_-lOF2-1">
          <mxGeometry x="80" y="30" width="310" height="690" as="geometry" />
        </mxCell>
        <mxCell id="ykbJe2ntPd-c3Dwv4MWI-1" style="edgeStyle=orthogonalEdgeStyle;rounded=0;orthogonalLoop=1;jettySize=auto;html=1;" edge="1" parent="g5ZLTCVm9iSsXj_-lOF2-1" source="g5ZLTCVm9iSsXj_-lOF2-6" target="g5ZLTCVm9iSsXj_-lOF2-10">
          <mxGeometry relative="1" as="geometry" />
        </mxCell>
        <mxCell id="g5ZLTCVm9iSsXj_-lOF2-6" value="insert(E)" style="html=1;whiteSpace=wrap;" vertex="1" parent="g5ZLTCVm9iSsXj_-lOF2-1">
          <mxGeometry x="552.5" y="70" width="75" height="30" as="geometry" />
        </mxCell>
        <mxCell id="ykbJe2ntPd-c3Dwv4MWI-17" style="edgeStyle=orthogonalEdgeStyle;rounded=0;orthogonalLoop=1;jettySize=auto;html=1;" edge="1" parent="g5ZLTCVm9iSsXj_-lOF2-1" source="g5ZLTCVm9iSsXj_-lOF2-10" target="8QLC0ydJMkTbTmuw9QSD-0">
          <mxGeometry relative="1" as="geometry" />
        </mxCell>
        <mxCell id="g5ZLTCVm9iSsXj_-lOF2-10" value="insertNode(Node)" style="html=1;whiteSpace=wrap;" vertex="1" parent="g5ZLTCVm9iSsXj_-lOF2-1">
          <mxGeometry x="153.75" y="70" width="180" height="30" as="geometry" />
        </mxCell>
        <mxCell id="g5ZLTCVm9iSsXj_-lOF2-14" style="edgeStyle=orthogonalEdgeStyle;rounded=0;orthogonalLoop=1;jettySize=auto;html=1;" edge="1" parent="g5ZLTCVm9iSsXj_-lOF2-1" source="g5ZLTCVm9iSsXj_-lOF2-15" target="g5ZLTCVm9iSsXj_-lOF2-30">
          <mxGeometry relative="1" as="geometry" />
        </mxCell>
        <mxCell id="g5ZLTCVm9iSsXj_-lOF2-15" value="balanceTheTree(Node,Node)" style="html=1;whiteSpace=wrap;" vertex="1" parent="g5ZLTCVm9iSsXj_-lOF2-1">
          <mxGeometry x="506.25" y="370" width="167.5" height="30" as="geometry" />
        </mxCell>
        <mxCell id="g5ZLTCVm9iSsXj_-lOF2-16" value="" style="group" vertex="1" connectable="0" parent="g5ZLTCVm9iSsXj_-lOF2-1">
          <mxGeometry x="170" y="435" width="147.5" height="60" as="geometry" />
        </mxCell>
        <mxCell id="g5ZLTCVm9iSsXj_-lOF2-17" value="leftRotate(Node)" style="html=1;whiteSpace=wrap;" vertex="1" parent="g5ZLTCVm9iSsXj_-lOF2-16">
          <mxGeometry width="147.5" height="30" as="geometry" />
        </mxCell>
        <mxCell id="g5ZLTCVm9iSsXj_-lOF2-18" value="rightRotate(Node)" style="html=1;whiteSpace=wrap;" vertex="1" parent="g5ZLTCVm9iSsXj_-lOF2-16">
          <mxGeometry y="30" width="147.5" height="30" as="geometry" />
        </mxCell>
        <mxCell id="ykbJe2ntPd-c3Dwv4MWI-14" style="edgeStyle=orthogonalEdgeStyle;rounded=0;orthogonalLoop=1;jettySize=auto;html=1;entryX=0.5;entryY=0;entryDx=0;entryDy=0;" edge="1" parent="g5ZLTCVm9iSsXj_-lOF2-1" source="g5ZLTCVm9iSsXj_-lOF2-19" target="g5ZLTCVm9iSsXj_-lOF2-40">
          <mxGeometry relative="1" as="geometry">
            <Array as="points">
              <mxPoint x="575" y="600" />
              <mxPoint x="575" y="600" />
            </Array>
          </mxGeometry>
        </mxCell>
        <mxCell id="ykbJe2ntPd-c3Dwv4MWI-15" value="Fixup done" style="edgeLabel;html=1;align=center;verticalAlign=middle;resizable=0;points=[];" vertex="1" connectable="0" parent="ykbJe2ntPd-c3Dwv4MWI-14">
          <mxGeometry x="0.075" y="2" relative="1" as="geometry">
            <mxPoint as="offset" />
          </mxGeometry>
        </mxCell>
        <mxCell id="g5ZLTCVm9iSsXj_-lOF2-19" value="Loop until parent is root" style="shape=umlFrame;whiteSpace=wrap;html=1;pointerEvents=0;width=140;height=30;" vertex="1" parent="g5ZLTCVm9iSsXj_-lOF2-1">
          <mxGeometry x="120" y="350" width="560" height="230" as="geometry" />
        </mxCell>
        <mxCell id="g5ZLTCVm9iSsXj_-lOF2-29" style="edgeStyle=orthogonalEdgeStyle;rounded=0;orthogonalLoop=1;jettySize=auto;html=1;" edge="1" parent="g5ZLTCVm9iSsXj_-lOF2-1" source="g5ZLTCVm9iSsXj_-lOF2-30" target="g5ZLTCVm9iSsXj_-lOF2-33">
          <mxGeometry relative="1" as="geometry" />
        </mxCell>
        <mxCell id="g5ZLTCVm9iSsXj_-lOF2-30" value="updateHeight(Node)" style="html=1;whiteSpace=wrap;" vertex="1" parent="g5ZLTCVm9iSsXj_-lOF2-1">
          <mxGeometry x="523.13" y="430" width="133.75" height="30" as="geometry" />
        </mxCell>
        <mxCell id="g5ZLTCVm9iSsXj_-lOF2-31" style="edgeStyle=orthogonalEdgeStyle;rounded=0;orthogonalLoop=1;jettySize=auto;html=1;" edge="1" parent="g5ZLTCVm9iSsXj_-lOF2-1" source="g5ZLTCVm9iSsXj_-lOF2-33" target="g5ZLTCVm9iSsXj_-lOF2-18">
          <mxGeometry relative="1" as="geometry" />
        </mxCell>
        <mxCell id="g5ZLTCVm9iSsXj_-lOF2-32" value="not balanced, do rotation" style="edgeLabel;html=1;align=center;verticalAlign=middle;resizable=0;points=[];" vertex="1" connectable="0" parent="g5ZLTCVm9iSsXj_-lOF2-31">
          <mxGeometry x="0.1835" y="-1" relative="1" as="geometry">
            <mxPoint x="24" y="6" as="offset" />
          </mxGeometry>
        </mxCell>
        <mxCell id="g5ZLTCVm9iSsXj_-lOF2-33" value="getBalanceFactor(Node)" style="html=1;whiteSpace=wrap;" vertex="1" parent="g5ZLTCVm9iSsXj_-lOF2-1">
          <mxGeometry x="523.13" y="500" width="133.75" height="30" as="geometry" />
        </mxCell>
        <mxCell id="g5ZLTCVm9iSsXj_-lOF2-34" style="edgeStyle=orthogonalEdgeStyle;rounded=0;orthogonalLoop=1;jettySize=auto;html=1;entryX=0;entryY=0.5;entryDx=0;entryDy=0;" edge="1" parent="g5ZLTCVm9iSsXj_-lOF2-1" source="g5ZLTCVm9iSsXj_-lOF2-17" target="g5ZLTCVm9iSsXj_-lOF2-15">
          <mxGeometry relative="1" as="geometry">
            <Array as="points">
              <mxPoint x="250" y="385" />
            </Array>
          </mxGeometry>
        </mxCell>
        <mxCell id="g5ZLTCVm9iSsXj_-lOF2-37" value="Bottom-Up" style="text;html=1;align=center;verticalAlign=middle;whiteSpace=wrap;rounded=0;" vertex="1" parent="g5ZLTCVm9iSsXj_-lOF2-1">
          <mxGeometry x="120" y="380" width="60" height="30" as="geometry" />
        </mxCell>
        <mxCell id="g5ZLTCVm9iSsXj_-lOF2-40" value="" style="ellipse;html=1;shape=endState;fillColor=#000000;strokeColor=#ff0000;" vertex="1" parent="g5ZLTCVm9iSsXj_-lOF2-1">
          <mxGeometry x="560" y="660" width="30" height="30" as="geometry" />
        </mxCell>
        <mxCell id="ykbJe2ntPd-c3Dwv4MWI-8" style="edgeStyle=orthogonalEdgeStyle;rounded=0;orthogonalLoop=1;jettySize=auto;html=1;entryX=0.5;entryY=0;entryDx=0;entryDy=0;" edge="1" parent="g5ZLTCVm9iSsXj_-lOF2-1" source="8QLC0ydJMkTbTmuw9QSD-0" target="5bPRix4VW2TkPP2hTnjC-0">
          <mxGeometry relative="1" as="geometry">
            <Array as="points" />
          </mxGeometry>
        </mxCell>
        <mxCell id="ykbJe2ntPd-c3Dwv4MWI-16" value="Found parent for newNode" style="edgeLabel;html=1;align=center;verticalAlign=middle;resizable=0;points=[];" vertex="1" connectable="0" parent="ykbJe2ntPd-c3Dwv4MWI-8">
          <mxGeometry x="0.1827" relative="1" as="geometry">
            <mxPoint as="offset" />
          </mxGeometry>
        </mxCell>
        <mxCell id="8QLC0ydJMkTbTmuw9QSD-0" value="getParentOf(E)" style="html=1;whiteSpace=wrap;" vertex="1" parent="g5ZLTCVm9iSsXj_-lOF2-1">
          <mxGeometry x="191.25" y="140" width="105" height="30" as="geometry" />
        </mxCell>
        <mxCell id="ykbJe2ntPd-c3Dwv4MWI-10" style="edgeStyle=orthogonalEdgeStyle;rounded=0;orthogonalLoop=1;jettySize=auto;html=1;entryX=0.5;entryY=0;entryDx=0;entryDy=0;" edge="1" parent="g5ZLTCVm9iSsXj_-lOF2-1" source="ykbJe2ntPd-c3Dwv4MWI-7" target="g5ZLTCVm9iSsXj_-lOF2-15">
          <mxGeometry relative="1" as="geometry">
            <mxPoint x="590" y="300" as="targetPoint" />
          </mxGeometry>
        </mxCell>
        <mxCell id="ykbJe2ntPd-c3Dwv4MWI-7" value="insert(E)" style="html=1;whiteSpace=wrap;" vertex="1" parent="g5ZLTCVm9iSsXj_-lOF2-1">
          <mxGeometry x="552.5" y="240" width="75" height="30" as="geometry" />
        </mxCell>
        <mxCell id="cW2WbAwrUCAWY3_N2xE9-0" value="Top-Down" style="text;html=1;align=center;verticalAlign=middle;whiteSpace=wrap;rounded=0;" vertex="1" parent="g5ZLTCVm9iSsXj_-lOF2-1">
          <mxGeometry x="296.25" y="140" width="60" height="30" as="geometry" />
        </mxCell>
        <mxCell id="5bPRix4VW2TkPP2hTnjC-3" style="edgeStyle=orthogonalEdgeStyle;rounded=0;orthogonalLoop=1;jettySize=auto;html=1;" edge="1" parent="g5ZLTCVm9iSsXj_-lOF2-1" source="5bPRix4VW2TkPP2hTnjC-0" target="ykbJe2ntPd-c3Dwv4MWI-7">
          <mxGeometry relative="1" as="geometry" />
        </mxCell>
        <mxCell id="5bPRix4VW2TkPP2hTnjC-0" value="insertNode(Node)" style="html=1;whiteSpace=wrap;" vertex="1" parent="g5ZLTCVm9iSsXj_-lOF2-1">
          <mxGeometry x="153.75" y="240" width="180" height="30" as="geometry" />
        </mxCell>
        <mxCell id="5bPRix4VW2TkPP2hTnjC-1" value="" style="ellipse;html=1;shape=startState;fillColor=#000000;strokeColor=#ff0000;" vertex="1" parent="g5ZLTCVm9iSsXj_-lOF2-1">
          <mxGeometry x="656.88" y="70" width="30" height="30" as="geometry" />
        </mxCell>
        <mxCell id="5bPRix4VW2TkPP2hTnjC-2" value="" style="edgeStyle=orthogonalEdgeStyle;html=1;verticalAlign=bottom;endArrow=open;endSize=8;strokeColor=#ff0000;rounded=0;entryX=1;entryY=0.5;entryDx=0;entryDy=0;" edge="1" source="5bPRix4VW2TkPP2hTnjC-1" parent="g5ZLTCVm9iSsXj_-lOF2-1" target="g5ZLTCVm9iSsXj_-lOF2-6">
          <mxGeometry relative="1" as="geometry">
            <mxPoint x="671.88" y="150" as="targetPoint" />
          </mxGeometry>
        </mxCell>
      </root>
    </mxGraphModel>
  </diagram>
</mxfile>
